<svg width="26" height="24" viewBox="0 0 26 24" fill="none" xmlns="http://www.w3.org/2000/svg">
<path d="M20.5849 9.18984L14.8099 3.41484C14.6576 3.2625 14.4583 3.1875 14.2591 3.1875C14.0599 3.1875 13.8607 3.2625 13.7083 3.41484L9.93256 7.19297C9.64662 7.16016 9.35834 7.14609 9.07006 7.14609C7.35443 7.14609 5.6388 7.71094 4.23021 8.84063C4.14491 8.90912 4.075 8.99481 4.02502 9.09212C3.97505 9.18943 3.94614 9.29618 3.94017 9.40541C3.9342 9.51464 3.9513 9.6239 3.99037 9.72608C4.02945 9.82826 4.0896 9.92106 4.16693 9.99844L8.42552 14.257L3.37709 19.3008C3.31522 19.3623 3.27704 19.4436 3.26927 19.5305L3.18959 20.4023C3.16849 20.6227 3.34427 20.8102 3.56224 20.8102C3.57396 20.8102 3.58568 20.8102 3.5974 20.8078L4.46927 20.7281C4.55599 20.7211 4.63802 20.6813 4.69896 20.6203L9.7474 15.5719L14.006 19.8305C14.1583 19.9828 14.3576 20.0578 14.5568 20.0578C14.7841 20.0578 15.0091 19.9594 15.1638 19.7672C16.4833 18.1195 17.0318 16.057 16.8091 14.0625L20.5849 10.2867C20.8872 9.98672 20.8872 9.49453 20.5849 9.18984V9.18984ZM15.6138 12.8742L15.0396 13.4484L15.1286 14.2547C15.2683 15.5017 15.0195 16.7615 14.4161 17.8617L6.14037 9.58125C6.44271 9.41484 6.75677 9.27422 7.0849 9.16172C7.7224 8.94141 8.39037 8.83125 9.07006 8.83125C9.29506 8.83125 9.5224 8.84297 9.7474 8.86875L10.5536 8.95781L11.1279 8.38359L14.2615 5.25L18.7497 9.73828L15.6138 12.8742Z" fill="#5A5A5A"/>
<circle cx="19.0001" cy="6.99997" r="2.80002" fill="white"/>
<path fill-rule="evenodd" clip-rule="evenodd" d="M21.9167 4.08323C20.3067 2.4732 17.6933 2.4732 16.0833 4.08323C14.4732 5.69326 14.4732 8.30665 16.0833 9.91668C17.6933 11.5267 20.3067 11.5267 21.9167 9.91668C23.5268 8.30665 23.5268 5.69326 21.9167 4.08323ZM20.1667 8.74989L19 7.5832L17.8334 8.74989L17.25 8.16655L18.4167 6.99986L17.25 5.83317L17.8334 5.24982L19 6.41651L20.1667 5.24982L20.7501 5.83317L19.5834 6.99986L20.7501 8.16655L20.1667 8.74989Z" fill="#5A5A5A"/>
</svg>
