<svg width="12" height="12" viewBox="0 0 12 12" fill="none" xmlns="http://www.w3.org/2000/svg">
<path d="M11.7233 4.12656L7.87327 0.276562C7.7717 0.175 7.63889 0.125 7.50608 0.125C7.37327 0.125 7.24045 0.175 7.13889 0.276562L4.6217 2.79531C4.43108 2.77344 4.23889 2.76406 4.0467 2.76406C2.90295 2.76406 1.7592 3.14063 0.82014 3.89375C0.763275 3.93941 0.716665 3.99654 0.683349 4.06141C0.650033 4.12629 0.630757 4.19745 0.626777 4.27027C0.622797 4.34309 0.634202 4.41593 0.66025 4.48405C0.686297 4.55217 0.726402 4.61404 0.777953 4.66563L3.61702 7.50469L0.251391 10.8672C0.210148 10.9082 0.184694 10.9624 0.179515 11.0203L0.126391 11.6016C0.112328 11.7484 0.229515 11.8734 0.374828 11.8734C0.38264 11.8734 0.390453 11.8734 0.398265 11.8719L0.979515 11.8188C1.03733 11.8141 1.09202 11.7875 1.13264 11.7469L4.49827 8.38125L7.33733 11.2203C7.43889 11.3219 7.5717 11.3719 7.70452 11.3719C7.85608 11.3719 8.00608 11.3063 8.1092 11.1781C8.98889 10.0797 9.35452 8.70469 9.20608 7.375L11.7233 4.85781C11.9248 4.65781 11.9248 4.32969 11.7233 4.12656ZM8.4092 6.58281L8.02639 6.96563L8.08577 7.50313C8.17887 8.33448 8.01298 9.1743 7.61077 9.90781L2.09358 4.3875C2.29514 4.27656 2.50452 4.18281 2.72327 4.10781C3.14827 3.96094 3.59358 3.8875 4.0467 3.8875C4.1967 3.8875 4.34827 3.89531 4.49827 3.9125L5.03577 3.97188L5.41858 3.58906L7.50764 1.5L10.4998 4.49219L8.4092 6.58281Z" fill="#646464"/>
</svg>
