<svg width="22" height="22" viewBox="0 0 22 22" fill="none" xmlns="http://www.w3.org/2000/svg">
<path d="M20.2836 8.27559L14.3328 7.41075L11.6726 2.01778C11.6 1.87013 11.4805 1.75059 11.3328 1.67794C10.9625 1.49513 10.5125 1.64747 10.3273 2.01778L7.66717 7.41075L1.71639 8.27559C1.55233 8.29903 1.40233 8.37638 1.28748 8.49356C1.14864 8.63627 1.07214 8.82825 1.07477 9.02733C1.07741 9.22642 1.15897 9.41631 1.30155 9.55528L5.60701 13.7529L4.58983 19.6803C4.56597 19.8182 4.58123 19.96 4.63387 20.0896C4.68651 20.2193 4.77442 20.3316 4.88764 20.4138C5.00086 20.496 5.13486 20.5449 5.27444 20.5549C5.41401 20.5648 5.55358 20.5355 5.67733 20.4701L11 17.6717L16.3226 20.4701C16.468 20.5475 16.6367 20.5733 16.7984 20.5451C17.2062 20.4748 17.4805 20.0881 17.4101 19.6803L16.393 13.7529L20.6984 9.55528C20.8156 9.44044 20.893 9.29044 20.9164 9.12638C20.9797 8.71622 20.6937 8.33653 20.2836 8.27559V8.27559Z" stroke="#989898" stroke-width="2"/>
</svg>
