<svg width="24" height="23" viewBox="0 0 24 23" fill="none" xmlns="http://www.w3.org/2000/svg">
<g filter="url(#filter0_d)">
<path d="M16.125 5.1875C16.125 5.08437 16.0406 5 15.9375 5H6.9375C6.83438 5 6.75 5.08437 6.75 5.1875V6.3125C6.75 6.41563 6.83438 6.5 6.9375 6.5H15.9375C16.0406 6.5 16.125 6.41563 16.125 6.3125V5.1875ZM15.9375 8.375H6.9375C6.83438 8.375 6.75 8.45937 6.75 8.5625V9.6875C6.75 9.79063 6.83438 9.875 6.9375 9.875H15.9375C16.0406 9.875 16.125 9.79063 16.125 9.6875V8.5625C16.125 8.45937 16.0406 8.375 15.9375 8.375ZM11.25 11.75H6.9375C6.83438 11.75 6.75 11.8344 6.75 11.9375V13.0625C6.75 13.1656 6.83438 13.25 6.9375 13.25H11.25C11.3531 13.25 11.4375 13.1656 11.4375 13.0625V11.9375C11.4375 11.8344 11.3531 11.75 11.25 11.75ZM10.125 18.9688H4.875V2.46875H18V10.5312C18 10.6344 18.0844 10.7188 18.1875 10.7188H19.5C19.6031 10.7188 19.6875 10.6344 19.6875 10.5312V1.53125C19.6875 1.11641 19.3523 0.78125 18.9375 0.78125H3.9375C3.52266 0.78125 3.1875 1.11641 3.1875 1.53125V19.9062C3.1875 20.3211 3.52266 20.6562 3.9375 20.6562H10.125C10.2281 20.6562 10.3125 20.5719 10.3125 20.4688V19.1562C10.3125 19.0531 10.2281 18.9688 10.125 18.9688ZM18.4875 17.225C19.1672 16.6086 19.5938 15.718 19.5938 14.7266C19.5938 12.8633 18.082 11.3516 16.2188 11.3516C14.3555 11.3516 12.8438 12.8633 12.8438 14.7266C12.8438 15.718 13.2703 16.6086 13.95 17.225C12.6141 17.9867 11.6953 19.3977 11.625 21.0242C11.6203 21.1297 11.707 21.2188 11.8125 21.2188H12.9398C13.0383 21.2188 13.1203 21.1414 13.1273 21.0406C13.2188 19.4188 14.5711 18.125 16.2188 18.125C17.8664 18.125 19.2188 19.4188 19.3102 21.0406C19.3148 21.1391 19.3969 21.2188 19.4977 21.2188H20.625C20.7328 21.2188 20.8172 21.1297 20.8125 21.0242C20.7445 19.3953 19.8234 17.9867 18.4875 17.225ZM16.2188 12.8516C17.2547 12.8516 18.0938 13.6906 18.0938 14.7266C18.0938 15.7625 17.2547 16.6016 16.2188 16.6016C15.1828 16.6016 14.3438 15.7625 14.3438 14.7266C14.3438 13.6906 15.1828 12.8516 16.2188 12.8516Z" fill="#111111"/>
</g>
<defs>
<filter id="filter0_d" x="-0.8125" y="0.78125" width="25.6252" height="28.4375" filterUnits="userSpaceOnUse" color-interpolation-filters="sRGB">
<feFlood flood-opacity="0" result="BackgroundImageFix"/>
<feColorMatrix in="SourceAlpha" type="matrix" values="0 0 0 0 0 0 0 0 0 0 0 0 0 0 0 0 0 0 127 0"/>
<feOffset dy="4"/>
<feGaussianBlur stdDeviation="2"/>
<feColorMatrix type="matrix" values="0 0 0 0 0 0 0 0 0 0 0 0 0 0 0 0 0 0 0.25 0"/>
<feBlend mode="normal" in2="BackgroundImageFix" result="effect1_dropShadow"/>
<feBlend mode="normal" in="SourceGraphic" in2="effect1_dropShadow" result="shape"/>
</filter>
</defs>
</svg>
